<svg xmlns="http://www.w3.org/2000/svg" viewBox="0 0 512 512"><defs><style>.cls-1{fill:#e8f2ff;}.cls-2{fill:#5f96fb;}</style></defs><g id="Layer_5" data-name="Layer 5"><path class="cls-1" d="M496.53,129.86C483.09,80.39,431.64,28.93,382.16,15.49,351.82,7.93,311.18.14,256,0,200.84.14,160.2,7.93,129.86,15.49,80.39,28.93,28.93,80.38,15.49,129.86,7.93,160.19.14,200.84,0,256c.14,55.17,7.93,95.81,15.49,126.15,13.44,49.48,64.9,100.93,114.37,114.37,30.34,7.56,71,15.35,126.15,15.48,55.16-.13,95.81-7.92,126.15-15.48,49.48-13.44,100.93-64.89,114.37-114.37,7.56-30.34,15.35-71,15.48-126.15C511.88,200.84,504.09,160.2,496.53,129.86Z"/><path class="cls-2" d="M86.47,223.5c.79-20.83,2.3-41.76,4.55-62.95,2.92-23.65,30.37-47.12,49.61-37.67,26.24,12.68,54.29,29.82,83.35,48.63s59.07,39,88.93,57a35.18,35.18,0,0,1,14.55,16.18c.28-30.18,1.52-105.78,2.55-110.95,1.95-10,11.13-19.76,21.15-22a131.85,131.85,0,0,1,51.31,0c10,2.22,19.2,11.93,21.15,22,1.23,6.12,2.74,111,2.61,122.28.13,11.29-1.38,116.16-2.61,122.28-1.95,10.05-11.13,19.76-21.15,22a131.85,131.85,0,0,1-51.31,0c-10-2.22-19.2-11.93-21.15-22-1-5.17-2.27-80.76-2.55-110.95a35.13,35.13,0,0,1-14.55,16.18c-29.86,17.95-59.88,38.21-88.93,57s-57.11,35.95-83.35,48.63c-19.24,9.45-46.69-14-49.61-37.67-2.24-21.19-3.76-42.11-4.55-62.95C84.87,259.09,86.47,223.5,86.47,223.5Z"/></g></svg>